<svg width="512" height="512" viewBox="0 0 512 512" fill="none" xmlns="http://www.w3.org/2000/svg">
  <defs>
    <linearGradient id="bellGradient" x1="0%" y1="0%" x2="100%" y2="100%">
      <stop offset="0%" style="stop-color:#00f0ff;stop-opacity:1" />
      <stop offset="100%" style="stop-color:#0040ff;stop-opacity:1" />
    </linearGradient>
  </defs>
  
  <!-- 背景（円形） -->
  <circle cx="256" cy="256" r="240" fill="url(#bellGradient)"/>
  
  <!-- ベルの本体 -->
  <path d="M256 80C200 80 160 120 160 176V240C160 260 150 280 140 300L120 340C110 360 120 380 140 380H372C392 380 402 360 392 340L372 300C362 280 352 260 352 240V176C352 120 312 80 256 80Z" fill="white" opacity="0.95"/>
  
  <!-- ベルの上部（取っ手部分） -->
  <path d="M256 80L240 100H272L256 80Z" fill="white" opacity="0.95"/>
  
  <!-- ベルの内部の線（装飾） -->
  <path d="M200 240C200 240 220 260 256 260C292 260 312 240 312 240" stroke="#0040ff" stroke-width="8" stroke-linecap="round" fill="none" opacity="0.6"/>
  
  <!-- ベルの下部（揺れる部分） -->
  <ellipse cx="256" cy="360" rx="20" ry="8" fill="white" opacity="0.95"/>
  
  <!-- 通知バッジ（オプション） -->
  <circle cx="360" cy="180" r="30" fill="#ff4444"/>
  <text x="360" y="190" font-family="Arial, sans-serif" font-size="24" font-weight="bold" fill="white" text-anchor="middle">!</text>
</svg>

